<svg width="32" height="32" viewBox="0 0 32 32" fill="none" xmlns="http://www.w3.org/2000/svg">
<path d="M21.3333 10.6667L22.2437 11.0805C22.4162 10.701 22.3352 10.2543 22.0404 9.95956C21.7457 9.66481 21.299 9.58381 20.9195 9.7563L21.3333 10.6667ZM14 14L13.5862 13.0896C13.3661 13.1897 13.1897 13.3661 13.0896 13.5862L14 14ZM10.6667 21.3333L9.7563 20.9195C9.58381 21.299 9.66481 21.7457 9.95956 22.0404C10.2543 22.3352 10.701 22.4162 11.0805 22.2437L10.6667 21.3333ZM18 18L18.4138 18.9104C18.6339 18.8103 18.8103 18.6339 18.9104 18.4138L18 18ZM16 27C9.92487 27 5 22.0751 5 16H3C3 23.1797 8.8203 29 16 29V27ZM5 16C5 9.92487 9.92487 5 16 5V3C8.8203 3 3 8.8203 3 16H5ZM16 5C22.0751 5 27 9.92487 27 16H29C29 8.8203 23.1797 3 16 3V5ZM27 16C27 22.0751 22.0751 27 16 27V29C23.1797 29 29 23.1797 29 16H27ZM20.9195 9.7563L13.5862 13.0896L14.4138 14.9104L21.7471 11.577L20.9195 9.7563ZM13.0896 13.5862L9.7563 20.9195L11.577 21.7471L14.9104 14.4138L13.0896 13.5862ZM11.0805 22.2437L18.4138 18.9104L17.5862 17.0896L10.2529 20.423L11.0805 22.2437ZM18.9104 18.4138L22.2437 11.0805L20.423 10.2529L17.0896 17.5862L18.9104 18.4138Z" fill="#1A3D36"/>
</svg>
