<svg width="25" height="24" viewBox="0 0 25 24" fill="none" xmlns="http://www.w3.org/2000/svg">
<path d="M8.71973 5.75C8.30973 5.75 7.96973 5.41 7.96973 5V2C7.96973 1.59 8.30973 1.25 8.71973 1.25C9.12973 1.25 9.46973 1.59 9.46973 2V5C9.46973 5.41 9.12973 5.75 8.71973 5.75Z" fill="#CF9400"/>
<path d="M16.7197 5.75C16.3097 5.75 15.9697 5.41 15.9697 5V2C15.9697 1.59 16.3097 1.25 16.7197 1.25C17.1297 1.25 17.4697 1.59 17.4697 2V5C17.4697 5.41 17.1297 5.75 16.7197 5.75Z" fill="#CF9400"/>
<path d="M21.2197 9.83997H4.21973C3.80973 9.83997 3.46973 9.49997 3.46973 9.08997C3.46973 8.67997 3.80973 8.33997 4.21973 8.33997H21.2197C21.6297 8.33997 21.9697 8.67997 21.9697 9.08997C21.9697 9.49997 21.6297 9.83997 21.2197 9.83997Z" fill="#CF9400"/>
<path d="M16.7197 22.75H8.71973C5.06973 22.75 2.96973 20.65 2.96973 17V8.5C2.96973 4.85 5.06973 2.75 8.71973 2.75H16.7197C20.3697 2.75 22.4697 4.85 22.4697 8.5V17C22.4697 20.65 20.3697 22.75 16.7197 22.75ZM8.71973 4.25C5.85973 4.25 4.46973 5.64 4.46973 8.5V17C4.46973 19.86 5.85973 21.25 8.71973 21.25H16.7197C19.5797 21.25 20.9697 19.86 20.9697 17V8.5C20.9697 5.64 19.5797 4.25 16.7197 4.25H8.71973Z" fill="#CF9400"/>
<path d="M9.21973 14.5C9.08973 14.5 8.95972 14.47 8.83972 14.42C8.71972 14.37 8.60974 14.3 8.50974 14.21C8.41974 14.11 8.34971 14 8.29971 13.88C8.24971 13.76 8.21973 13.63 8.21973 13.5C8.21973 13.24 8.32974 12.98 8.50974 12.79C8.60974 12.7 8.71972 12.63 8.83972 12.58C9.01972 12.5 9.21974 12.48 9.41974 12.52C9.47974 12.53 9.53973 12.55 9.59973 12.58C9.65973 12.6 9.71972 12.63 9.77972 12.67C9.82972 12.71 9.87972 12.75 9.92972 12.79C9.96972 12.84 10.0197 12.89 10.0497 12.94C10.0897 13 10.1197 13.06 10.1397 13.12C10.1697 13.18 10.1897 13.24 10.1997 13.3C10.2097 13.37 10.2197 13.43 10.2197 13.5C10.2197 13.76 10.1097 14.02 9.92972 14.21C9.73972 14.39 9.47973 14.5 9.21973 14.5Z" fill="#CF9400"/>
<path d="M12.7197 14.5C12.4597 14.5 12.1997 14.39 12.0097 14.21C11.9697 14.16 11.9297 14.11 11.8897 14.06C11.8497 14 11.8197 13.94 11.7997 13.88C11.7697 13.82 11.7497 13.76 11.7397 13.7C11.7297 13.63 11.7197 13.57 11.7197 13.5C11.7197 13.37 11.7497 13.24 11.7997 13.12C11.8497 13 11.9197 12.89 12.0097 12.79C12.2897 12.51 12.7397 12.42 13.0997 12.58C13.2297 12.63 13.3297 12.7 13.4297 12.79C13.6097 12.98 13.7197 13.24 13.7197 13.5C13.7197 13.57 13.7097 13.63 13.6997 13.7C13.6897 13.76 13.6697 13.82 13.6397 13.88C13.6197 13.94 13.5897 14 13.5497 14.06C13.5097 14.11 13.4697 14.16 13.4297 14.21C13.3297 14.3 13.2297 14.37 13.0997 14.42C12.9797 14.47 12.8497 14.5 12.7197 14.5Z" fill="#CF9400"/>
<path d="M9.21973 18C9.08973 18 8.95972 17.97 8.83972 17.92C8.71972 17.87 8.60974 17.8 8.50974 17.71C8.41974 17.61 8.34971 17.51 8.29971 17.38C8.24971 17.26 8.21973 17.13 8.21973 17C8.21973 16.74 8.32974 16.48 8.50974 16.29C8.60974 16.2 8.71972 16.13 8.83972 16.08C9.20972 15.92 9.64972 16.01 9.92972 16.29C9.96972 16.34 10.0197 16.39 10.0497 16.44C10.0897 16.5 10.1197 16.56 10.1397 16.62C10.1697 16.68 10.1897 16.74 10.1997 16.81C10.2097 16.87 10.2197 16.94 10.2197 17C10.2197 17.26 10.1097 17.52 9.92972 17.71C9.73972 17.89 9.47973 18 9.21973 18Z" fill="#CF9400"/>
</svg>
