<svg width="26" height="26" viewBox="0 0 26 26" fill="none" xmlns="http://www.w3.org/2000/svg">
<path d="M15.4815 18.7307L14.084 20.1391V14.0832C14.084 13.7959 13.9699 13.5204 13.7667 13.3172C13.5635 13.114 13.288 12.9999 13.0007 12.9999C12.7134 12.9999 12.4378 13.114 12.2346 13.3172C12.0315 13.5204 11.9173 13.7959 11.9173 14.0832V20.1391L10.5198 18.7307C10.4188 18.6297 10.2989 18.5496 10.1669 18.4949C10.035 18.4403 9.89352 18.4121 9.75067 18.4121C9.60783 18.4121 9.46638 18.4403 9.3344 18.4949C9.20243 18.5496 9.08252 18.6297 8.98151 18.7307C8.8805 18.8318 8.80037 18.9517 8.74571 19.0836C8.69104 19.2156 8.66291 19.3571 8.66291 19.4999C8.66291 19.6428 8.69104 19.7842 8.74571 19.9162C8.80037 20.0482 8.8805 20.1681 8.98151 20.2691L12.2315 23.5191C12.3345 23.6177 12.456 23.695 12.589 23.7466C12.7187 23.8039 12.8589 23.8335 13.0007 23.8335C13.1425 23.8335 13.2827 23.8039 13.4123 23.7466C13.5453 23.695 13.6668 23.6177 13.7698 23.5191L17.0198 20.2691C17.2238 20.0651 17.3384 19.7884 17.3384 19.4999C17.3384 19.2114 17.2238 18.9347 17.0198 18.7307C16.8158 18.5267 16.5392 18.4121 16.2507 18.4121C15.9622 18.4121 15.6855 18.5267 15.4815 18.7307ZM19.9557 6.73824C19.2937 5.21724 18.1514 3.95524 16.7036 3.14561C15.2558 2.33598 13.5825 2.02339 11.9401 2.25574C10.2976 2.48809 8.77668 3.25256 7.61028 4.43201C6.44389 5.61146 5.6964 7.14082 5.48234 8.78574C4.44948 9.03309 3.54341 9.65114 2.93622 10.5225C2.32903 11.3939 2.063 12.4579 2.18864 13.5126C2.31429 14.5672 2.82286 15.5389 3.61778 16.2433C4.4127 16.9476 5.43861 17.3355 6.50067 17.3332C6.78799 17.3332 7.06354 17.2191 7.26671 17.0159C7.46987 16.8128 7.58401 16.5372 7.58401 16.2499C7.58401 15.9626 7.46987 15.687 7.26671 15.4839C7.06354 15.2807 6.78799 15.1666 6.50067 15.1666C5.92604 15.1666 5.37494 14.9383 4.96861 14.532C4.56228 14.1256 4.33401 13.5745 4.33401 12.9999C4.33401 12.4253 4.56228 11.8742 4.96861 11.4678C5.37494 11.0615 5.92604 10.8332 6.50067 10.8332C6.78799 10.8332 7.06354 10.7191 7.26671 10.5159C7.46987 10.3128 7.58401 10.0372 7.58401 9.74991C7.58677 8.46862 8.04365 7.22981 8.87347 6.25354C9.70328 5.27727 10.8523 4.62677 12.1164 4.4176C13.3805 4.20844 14.6778 4.45415 15.7779 5.11108C16.8779 5.76802 17.7095 6.79364 18.1248 8.00574C18.1868 8.1919 18.2981 8.35775 18.4469 8.48558C18.5957 8.61342 18.7765 8.69844 18.9698 8.73157C19.6914 8.86793 20.3455 9.24464 20.8256 9.80032C21.3057 10.356 21.5835 11.0579 21.6136 11.7916C21.6438 12.5253 21.4245 13.2476 20.9917 13.8408C20.5588 14.434 19.9378 14.8631 19.2298 15.0582C19.0918 15.0938 18.9622 15.1562 18.8483 15.2419C18.7344 15.3275 18.6385 15.4348 18.5661 15.5575C18.4937 15.6803 18.4461 15.8161 18.4262 15.9572C18.4062 16.0983 18.4143 16.2419 18.4498 16.3799C18.4854 16.5179 18.5478 16.6475 18.6335 16.7614C18.7191 16.8753 18.8264 16.9712 18.9491 17.0436C19.0719 17.1161 19.2076 17.1636 19.3488 17.1836C19.4899 17.2035 19.6335 17.1955 19.7715 17.1599C20.9116 16.8586 21.9222 16.1936 22.6499 15.2657C23.3776 14.3378 23.7827 13.1977 23.8035 12.0187C23.8243 10.8397 23.4598 9.68604 22.7654 8.733C22.0709 7.77997 21.0844 7.0796 19.9557 6.73824Z" fill="#E30613"/>
</svg>
