<svg width="30" height="30" viewBox="0 0 30 30" fill="none" xmlns="http://www.w3.org/2000/svg">
<path d="M15 3.068e-07C12.0332 3.67464e-07 9.13294 0.879812 6.66614 2.52817C4.19933 4.17652 2.27675 6.51938 1.14153 9.26045C0.00630184 12.0015 -0.290576 15.0177 0.288448 17.9275C0.867472 20.8373 2.29639 23.51 4.39448 25.6077C6.49257 27.7053 9.1656 29.1337 12.0755 29.7121C14.9854 30.2906 18.0015 29.9931 20.7424 28.8573C23.4832 27.7215 25.8257 25.7985 27.4735 23.3313C29.1214 20.8642 30.0006 17.9638 30 14.997C30 13.0273 29.612 11.0769 28.8581 9.25717C28.1043 7.43746 26.9993 5.78407 25.6064 4.39144C24.2135 2.9988 22.5599 1.8942 20.74 1.14071C18.9202 0.387217 16.9697 -0.000398092 15 3.068e-07ZM15 28.635C12.2996 28.638 9.65901 27.84 7.41226 26.3419C5.16551 24.8438 3.41357 22.713 2.3781 20.219C1.34263 17.7251 1.07014 14.98 1.59512 12.3311C2.1201 9.68226 3.41896 7.24862 5.32736 5.33809C7.23577 3.42757 9.66796 2.12601 12.3162 1.59809C14.9645 1.07016 17.7099 1.33959 20.205 2.37229C22.7001 3.40499 24.8329 5.15456 26.3335 7.39964C27.834 9.64472 28.635 12.2844 28.635 14.9848C28.635 18.6024 27.1989 22.0721 24.6423 24.6316C22.0857 27.191 18.6176 28.631 15 28.635Z" fill="#CF9400"/>
<path d="M15.6553 23.9909V15.7857H18.4096L18.8221 12.5885H15.6553V10.5471C15.6553 9.62188 15.9131 8.99093 17.2417 8.99093H18.9343V6.13047C18.1153 6.0427 17.292 6.00017 16.4682 6.00307C14.0263 6.00307 12.355 7.49549 12.355 10.2316V12.5885H9.59155V15.7857H12.355V23.9909H15.6553Z" fill="#CF9400"/>
</svg>
