<svg width="32" height="32" viewBox="0 0 32 32" fill="none" xmlns="http://www.w3.org/2000/svg">
<path d="M4 17H28V15H4V17ZM16 27C9.92487 27 5 22.0751 5 16H3C3 23.1797 8.8203 29 16 29V27ZM5 16C5 9.92487 9.92487 5 16 5V3C8.8203 3 3 8.8203 3 16H5ZM16 5C22.0751 5 27 9.92487 27 16H29C29 8.8203 23.1797 3 16 3V5ZM27 16C27 22.0751 22.0751 27 16 27V29C23.1797 29 29 23.1797 29 16H27ZM16 27C15.589 27 15.1222 26.8168 14.6134 26.3326C14.0995 25.8435 13.5912 25.0886 13.1426 24.0791C12.2464 22.0629 11.6667 19.2073 11.6667 16H9.66667C9.66667 19.4201 10.2808 22.5646 11.315 24.8914C11.8315 26.0536 12.4724 27.056 13.2346 27.7814C14.002 28.5117 14.9382 29 16 29V27ZM11.6667 16C11.6667 12.7927 12.2464 9.93715 13.1426 7.92086C13.5912 6.91145 14.0995 6.15649 14.6134 5.66741C15.1222 5.18325 15.589 5 16 5V3C14.9382 3 14.002 3.48833 13.2346 4.21862C12.4724 4.94402 11.8315 5.94642 11.315 7.10858C10.2808 9.43543 9.66667 12.5799 9.66667 16H11.6667ZM16 5C16.411 5 16.8778 5.18325 17.3866 5.66741C17.9005 6.15649 18.4088 6.91145 18.8574 7.92086C19.7536 9.93715 20.3333 12.7927 20.3333 16H22.3333C22.3333 12.5799 21.7192 9.43543 20.685 7.10858C20.1685 5.94642 19.5276 4.94402 18.7654 4.21862C17.998 3.48833 17.0618 3 16 3V5ZM20.3333 16C20.3333 19.2073 19.7536 22.0629 18.8574 24.0791C18.4088 25.0886 17.9005 25.8435 17.3866 26.3326C16.8778 26.8168 16.411 27 16 27V29C17.0618 29 17.998 28.5117 18.7654 27.7814C19.5276 27.056 20.1685 26.0536 20.685 24.8914C21.7192 22.5646 22.3333 19.4201 22.3333 16H20.3333Z" fill="#1A3D36"/>
</svg>
