<svg width="24" height="24" viewBox="0 0 24 24" fill="none" xmlns="http://www.w3.org/2000/svg">
<path d="M12.7099 2.29C12.617 2.19627 12.5064 2.12188 12.3845 2.07111C12.2627 2.02034 12.132 1.9942 11.9999 1.9942C11.8679 1.9942 11.7372 2.02034 11.6154 2.07111C11.4935 2.12188 11.3829 2.19627 11.2899 2.29L2.28994 11.29C2.19621 11.383 2.12182 11.4936 2.07105 11.6154C2.02028 11.7373 1.99414 11.868 1.99414 12C1.99414 12.132 2.02028 12.2627 2.07105 12.3846C2.12182 12.5064 2.19621 12.617 2.28994 12.71C2.38338 12.8027 2.49419 12.876 2.61603 12.9258C2.73787 12.9755 2.86833 13.0008 2.99994 13H3.99994V20C3.99994 20.5304 4.21065 21.0391 4.58573 21.4142C4.9608 21.7893 5.46951 22 5.99994 22H17.9999C18.5304 22 19.0391 21.7893 19.4142 21.4142C19.7892 21.0391 19.9999 20.5304 19.9999 20V13H20.9999C21.2652 13 21.5195 12.8946 21.707 12.7071C21.8946 12.5196 21.9999 12.2652 21.9999 12C22.0007 11.8684 21.9755 11.7379 21.9257 11.6161C21.8759 11.4943 21.8026 11.3834 21.7099 11.29L12.7099 2.29ZM5.99994 20V10.41L11.9999 4.41L17.9999 10.41V20H5.99994Z" fill="#1A3D36"/>
</svg>
