<svg width="24" height="24" viewBox="0 0 24 24" fill="none" xmlns="http://www.w3.org/2000/svg">
<path d="M7.5007 12C7.5007 11.3369 7.64861 10.7071 7.91148 10.1372C8.11499 9.69593 8.07996 9.15924 7.73636 8.81564L5.15929 6.23857C4.74923 5.82851 4.07311 5.85004 3.74213 6.32622C2.62168 7.93817 1.9707 9.89396 1.9707 12C1.9707 14.1044 2.62067 16.0587 3.73347 17.67C4.06348 18.1478 4.74064 18.1709 5.15178 17.7608L7.73484 15.1843C8.07922 14.8408 8.11463 14.3035 7.91102 13.8618C7.64844 13.2921 7.5007 12.6627 7.5007 12Z" fill="#292D32"/>
<path d="M12.0009 7.5C12.6641 7.5 13.2938 7.64791 13.8637 7.91078C14.305 8.11428 14.8417 8.07926 15.1853 7.73566L17.7345 5.18643C18.1438 4.77717 18.1233 4.10256 17.6486 3.77141C16.0425 2.65097 14.0854 2 11.9709 2C9.86674 2 7.91966 2.64985 6.31072 3.76248C5.8331 4.09277 5.80998 4.76993 6.22007 5.18107L8.78114 7.74868C9.12705 8.09546 9.66901 8.12873 10.1126 7.92105C10.6864 7.6524 11.3246 7.5 12.0009 7.5Z" fill="#292D32"/>
<path d="M19.8905 5.90608C19.7128 5.67646 19.3754 5.66451 19.1699 5.86955L15.9511 9.08009C15.7777 9.25304 15.7578 9.52474 15.8817 9.73598C16.2721 10.4014 16.5004 11.1722 16.5004 12C16.5004 12.828 16.2719 13.5989 15.8814 14.2645C15.7576 14.4755 15.7773 14.7469 15.9503 14.9199L19.1699 18.1395C19.3753 18.3449 19.7131 18.3332 19.8908 18.1033C21.1961 16.415 21.9704 14.2968 21.9704 12C21.9704 9.70296 21.196 7.59315 19.8905 5.90608Z" fill="#292D32"/>
<path d="M11.9992 16.5C11.1712 16.5 10.4003 16.2716 9.73473 15.881C9.52372 15.7572 9.25233 15.7769 9.07933 15.9499L5.82976 19.1995C5.62427 19.405 5.63601 19.7427 5.86592 19.9205C7.55424 21.2257 9.67239 22 11.9692 22C14.2764 22 16.3961 21.225 18.077 19.9108C18.305 19.7325 18.3156 19.3964 18.111 19.1918L14.8864 15.9672C14.7146 15.7954 14.4455 15.7746 14.2351 15.896C13.572 16.2786 12.8106 16.5 11.9992 16.5Z" fill="#292D32"/>
</svg>
