<svg width="52" height="52" viewBox="0 0 52 52" fill="none" xmlns="http://www.w3.org/2000/svg">
<path fill-rule="evenodd" clip-rule="evenodd" d="M26 50.3583C40.3594 50.3583 52 39.0852 52 25.1791C52 11.2731 40.3594 0 26 0C11.6406 0 0 11.2731 0 25.1791C0 32.7424 3.44337 39.5268 8.89474 44.1423V49.2376C8.89474 51.229 10.9232 52.5647 12.7318 51.7642L18.386 49.2614C20.7941 49.9746 23.3508 50.3583 26 50.3583Z" fill="url(#paint0_linear_415_1317)"/>
<path d="M19.774 19.8266L12.2345 30.1379C11.4261 31.2435 12.8799 32.5716 13.9867 31.7387L20.4246 26.8937C21.0799 26.4006 21.9984 26.3939 22.6614 26.8776L28.3871 31.0544C29.4851 31.8554 31.0544 31.6251 31.8539 30.5455L39.761 19.8681C40.581 18.7608 39.1161 17.4219 38.0076 18.2657L31.2013 23.4472C30.5458 23.9462 29.6224 23.9553 28.9564 23.4695L23.2493 19.3062C22.1467 18.5018 20.5701 18.7379 19.774 19.8266Z" fill="white"/>
<defs>
<linearGradient id="paint0_linear_415_1317" x1="26" y1="0" x2="17.6573" y2="51.7166" gradientUnits="userSpaceOnUse">
<stop stop-color="#00B1FF"/>
<stop offset="1" stop-color="#006BFF"/>
</linearGradient>
</defs>
</svg>
