<svg width="24" height="24" viewBox="0 0 24 24" fill="none" xmlns="http://www.w3.org/2000/svg">
<path d="M7 8C8.65685 8 10 6.65685 10 5C10 3.34315 8.65685 2 7 2C5.34315 2 4 3.34315 4 5C4 6.65685 5.34315 8 7 8Z" stroke="#1A3D36" stroke-width="2"/>
<path d="M10.0001 12H5.89806C5.16698 12.0002 4.46114 12.2674 3.91314 12.7513C3.36515 13.2352 3.01271 13.9026 2.92206 14.628L2.28106 19.752C2.24589 20.0334 2.27098 20.3191 2.35467 20.5901C2.43835 20.8611 2.57871 21.1112 2.76644 21.3238C2.95416 21.5364 3.18496 21.7066 3.44351 21.8232C3.70206 21.9398 3.98244 22.0001 4.26606 22H9.00006M21.7191 19.752L21.0791 14.628C20.9884 13.9022 20.6356 13.2346 20.0872 12.7506C19.5388 12.2667 18.8325 11.9997 18.1011 12H15.8971C15.166 12.0002 14.4601 12.2674 13.9121 12.7513C13.3641 13.2352 13.0117 13.9026 12.9211 14.628L12.2801 19.752C12.2449 20.0335 12.27 20.3193 12.3537 20.5903C12.4375 20.8614 12.5779 21.1116 12.7658 21.3242C12.9536 21.5368 13.1845 21.707 13.4432 21.8235C13.7019 21.94 13.9824 22.0002 14.2661 22H19.7341C20.0177 22.0001 20.2981 21.9398 20.5566 21.8232C20.8152 21.7066 21.046 21.5364 21.2337 21.3238C21.4214 21.1112 21.5618 20.8611 21.6455 20.5901C21.7291 20.3191 21.7542 20.0334 21.7191 19.752Z" stroke="#1A3D36" stroke-width="2" stroke-linecap="round" stroke-linejoin="round"/>
<path d="M17 8C18.6569 8 20 6.65685 20 5C20 3.34315 18.6569 2 17 2C15.3431 2 14 3.34315 14 5C14 6.65685 15.3431 8 17 8Z" stroke="#1A3D36" stroke-width="2"/>
</svg>
