<svg width="21" height="21" viewBox="0 0 21 21" fill="none" xmlns="http://www.w3.org/2000/svg">
<path d="M18.4752 16.1083C18.4752 16.4083 18.4085 16.7167 18.2668 17.0167C18.1252 17.3167 17.9418 17.6 17.7002 17.8667C17.2918 18.3167 16.8418 18.6417 16.3335 18.85C15.8335 19.0583 15.2918 19.1667 14.7085 19.1667C13.8585 19.1667 12.9502 18.9667 11.9918 18.5583C11.0335 18.15 10.0752 17.6 9.12516 16.9083C8.16683 16.2083 7.2585 15.4333 6.39183 14.575C5.5335 13.7083 4.7585 12.8 4.06683 11.85C3.3835 10.9 2.8335 9.95 2.4335 9.00833C2.0335 8.05833 1.8335 7.15 1.8335 6.28333C1.8335 5.71667 1.9335 5.175 2.1335 4.675C2.3335 4.16667 2.65016 3.7 3.09183 3.28333C3.62516 2.75833 4.2085 2.5 4.82516 2.5C5.0585 2.5 5.29183 2.55 5.50016 2.65C5.71683 2.75 5.9085 2.9 6.0585 3.11667L7.99183 5.84167C8.14183 6.05 8.25016 6.24167 8.32516 6.425C8.40016 6.6 8.44183 6.775 8.44183 6.93333C8.44183 7.13333 8.3835 7.33333 8.26683 7.525C8.1585 7.71667 8.00016 7.91667 7.80016 8.11667L7.16683 8.775C7.07516 8.86667 7.0335 8.975 7.0335 9.10833C7.0335 9.175 7.04183 9.23333 7.0585 9.3C7.0835 9.36667 7.1085 9.41667 7.12516 9.46667C7.27516 9.74167 7.5335 10.1 7.90016 10.5333C8.27516 10.9667 8.67516 11.4083 9.1085 11.85C9.5585 12.2917 9.99183 12.7 10.4335 13.075C10.8668 13.4417 11.2252 13.6917 11.5085 13.8417C11.5502 13.8583 11.6002 13.8833 11.6585 13.9083C11.7252 13.9333 11.7918 13.9417 11.8668 13.9417C12.0085 13.9417 12.1168 13.8917 12.2085 13.8L12.8418 13.175C13.0502 12.9667 13.2502 12.8083 13.4418 12.7083C13.6335 12.5917 13.8252 12.5333 14.0335 12.5333C14.1918 12.5333 14.3585 12.5667 14.5418 12.6417C14.7252 12.7167 14.9168 12.825 15.1252 12.9667L17.8835 14.925C18.1002 15.075 18.2502 15.25 18.3418 15.4583C18.4252 15.6667 18.4752 15.875 18.4752 16.1083Z" stroke="#1A3D36" stroke-width="1.8" stroke-miterlimit="10"/>
<path d="M15.5837 8.33317C15.5837 7.83317 15.192 7.0665 14.6087 6.4415C14.0753 5.8665 13.367 5.4165 12.667 5.4165" stroke="#1A3D36" stroke-width="1.8" stroke-linecap="round" stroke-linejoin="round"/>
<path d="M18.5003 8.33333C18.5003 5.10833 15.892 2.5 12.667 2.5" stroke="#1A3D36" stroke-width="1.8" stroke-linecap="round" stroke-linejoin="round"/>
</svg>
