<svg width="32" height="32" viewBox="0 0 32 32" fill="none" xmlns="http://www.w3.org/2000/svg">
<path d="M12.6706 5.67629L13.5991 5.3049L13.5991 5.3049L12.6706 5.67629ZM14.0763 9.19048L13.1478 9.56187L13.1478 9.56187L14.0763 9.19048ZM13.6491 11.888L12.8809 11.2478L12.8808 11.2478L13.6491 11.888ZM12.8926 12.7958L13.6608 13.436L13.6608 13.436L12.8926 12.7958ZM13.0552 16.3887L12.348 17.0958L12.3481 17.0958L13.0552 16.3887ZM15.6114 18.9447L16.3185 18.2376L16.3185 18.2376L15.6114 18.9447ZM19.2041 19.1076L18.564 18.3393L18.5639 18.3394L19.2041 19.1076ZM20.1123 18.3511L20.7523 19.1194L20.7524 19.1193L20.1123 18.3511ZM22.8095 17.9238L23.1809 16.9954L23.1809 16.9954L22.8095 17.9238ZM26.3235 19.3295L25.952 20.258L25.9521 20.258L26.3235 19.3295ZM27.9999 21.8054H26.9999V21.8054L27.9999 21.8054ZM28 25.4738H29V25.4737L28 25.4738ZM10.1947 5C10.8762 5 11.489 5.41492 11.7421 6.04768L13.5991 5.3049C13.0422 3.91282 11.694 3 10.1947 3V5ZM11.7421 6.04768L13.1478 9.56187L15.0047 8.8191L13.5991 5.3049L11.7421 6.04768ZM13.1478 9.56187C13.3752 10.1304 13.2727 10.7776 12.8809 11.2478L14.4173 12.5281C15.2796 11.4934 15.5049 10.0694 15.0047 8.81909L13.1478 9.56187ZM12.8808 11.2478L12.1243 12.1557L13.6608 13.436L14.4173 12.5281L12.8808 11.2478ZM12.1244 12.1557C10.9105 13.6123 11.0069 15.7546 12.348 17.0958L13.7623 15.6816C13.1529 15.0722 13.1088 14.0985 13.6608 13.436L12.1244 12.1557ZM12.3481 17.0958L14.9043 19.6519L16.3185 18.2376L13.7622 15.6815L12.3481 17.0958ZM14.9043 19.6518C16.2453 20.9928 18.3875 21.0899 19.8443 19.8759L18.5639 18.3394C17.9017 18.8913 16.928 18.8471 16.3185 18.2376L14.9043 19.6518ZM19.8442 19.8759L20.7523 19.1194L19.4722 17.5828L18.564 18.3393L19.8442 19.8759ZM20.7524 19.1193C21.2227 18.7274 21.8697 18.6249 22.4381 18.8523L23.1809 16.9954C21.9305 16.4952 20.5067 16.7206 19.4721 17.5829L20.7524 19.1193ZM22.4381 18.8523L25.952 20.258L26.6949 18.401L23.1809 16.9954L22.4381 18.8523ZM25.9521 20.258C26.5849 20.5111 26.9999 21.124 26.9999 21.8054H28.9999C28.9999 20.3059 28.0868 18.9578 26.6949 18.401L25.9521 20.258ZM26.9999 21.8054L27 25.4738L29 25.4737L28.9999 21.8053L26.9999 21.8054ZM27 25.4738C27 26.3168 26.3168 26.9999 25.474 26.9999V28.9999C27.4216 28.9999 29 27.4212 29 25.4738H27ZM25.474 26.9999C14.1666 26.9999 5 17.8336 5 6.52637H3C3 18.9383 13.0621 28.9999 25.474 28.9999V26.9999ZM5 6.52637C5 5.68338 5.68338 5 6.52632 5V3C4.57876 3 3 4.57886 3 6.52637H5ZM6.52632 5H10.1947V3H6.52632V5Z" fill="#1A3D36"/>
</svg>
