<svg width="20" height="20" viewBox="0 0 20 20" fill="none" xmlns="http://www.w3.org/2000/svg">
<path d="M9.58342 18.125C4.87508 18.125 1.04175 14.2916 1.04175 9.58329C1.04175 4.87496 4.87508 1.04163 9.58342 1.04163C14.2917 1.04163 18.1251 4.87496 18.1251 9.58329C18.1251 14.2916 14.2917 18.125 9.58342 18.125ZM9.58342 2.29163C5.55841 2.29163 2.29175 5.56663 2.29175 9.58329C2.29175 13.6 5.55841 16.875 9.58342 16.875C13.6084 16.875 16.8751 13.6 16.8751 9.58329C16.8751 5.56663 13.6084 2.29163 9.58342 2.29163Z" fill="#1A3D36"/>
<path d="M18.3334 18.9583C18.1751 18.9583 18.0167 18.9 17.8917 18.775L16.2251 17.1083C15.9834 16.8666 15.9834 16.4666 16.2251 16.225C16.4667 15.9833 16.8667 15.9833 17.1084 16.225L18.7751 17.8916C19.0168 18.1333 19.0168 18.5333 18.7751 18.775C18.6501 18.9 18.4917 18.9583 18.3334 18.9583Z" fill="#1A3D36"/>
</svg>
