<svg width="30" height="30" viewBox="0 0 30 30" fill="none" xmlns="http://www.w3.org/2000/svg">
<path d="M15.003 3.06853e-07C12.0362 -0.000599662 9.1358 0.878624 6.66866 2.52648C4.20153 4.17434 2.27846 6.51681 1.14269 9.25765C0.00690616 11.9985 -0.290578 15.0146 0.287857 17.9245C0.866293 20.8344 2.29467 23.5074 4.39233 25.6055C6.49 27.7036 9.16274 29.1325 12.0725 29.7115C14.9823 30.2906 17.9985 29.9937 20.7396 28.8585C23.4806 27.7233 25.8235 25.8007 27.4718 23.3339C29.1202 20.8671 30 17.9668 30 15C30 11.0223 28.4201 7.20743 25.6077 4.39447C22.7953 1.58151 18.9808 0.000804699 15.003 3.06853e-07ZM15.003 28.635C12.302 28.638 9.6608 27.8396 7.41372 26.3408C5.16664 24.8421 3.41472 22.7104 2.37969 20.2155C1.34467 17.7207 1.07306 14.9748 1.59927 12.3255C2.12548 9.67626 3.42585 7.24265 5.33577 5.33273C7.24569 3.42281 9.6793 2.12244 12.3286 1.59623C14.9779 1.07002 17.7237 1.34162 20.2186 2.37665C22.7134 3.41168 24.8451 5.1636 26.3439 7.41068C27.8426 9.65776 28.641 12.299 28.638 15C28.634 18.615 27.1962 22.0808 24.64 24.637C22.0838 27.1931 18.618 28.631 15.003 28.635Z" fill="#CF9400"/>
<path d="M12.6008 22.2649C18.5553 22.2649 21.8101 17.3327 21.8101 13.0526C21.8101 12.9131 21.8101 12.7735 21.8101 12.634C22.445 12.1772 22.9926 11.6101 23.4269 10.9596C22.8359 11.221 22.2091 11.3928 21.5674 11.4692C22.2434 11.064 22.749 10.4268 22.9901 9.67647C22.3553 10.0557 21.6594 10.3216 20.9334 10.4621C20.489 9.9895 19.9128 9.66123 19.2797 9.5198C18.6465 9.37838 17.9854 9.43032 17.3821 9.6689C16.7788 9.90748 16.261 10.3217 15.8958 10.8579C15.5306 11.3942 15.3349 12.0277 15.3338 12.6765C15.3326 12.9257 15.3611 13.1742 15.4188 13.4166C14.1316 13.3515 12.8725 13.0169 11.7229 12.4342C10.5733 11.8516 9.5589 11.034 8.74537 10.0344C8.33038 10.7464 8.20288 11.5899 8.38893 12.3928C8.57498 13.1956 9.06052 13.8971 9.74638 14.3539C9.23268 14.3392 8.73012 14.2008 8.28127 13.9505V13.993C8.28179 14.7401 8.54057 15.4642 9.01377 16.0424C9.48698 16.6206 10.1455 17.0175 10.8778 17.1659C10.5998 17.2403 10.3133 17.278 10.0255 17.2781C9.82183 17.2788 9.61863 17.2595 9.41878 17.2205C9.62604 17.8651 10.0301 18.4287 10.5742 18.8319C11.1183 19.235 11.775 19.4576 12.4521 19.4682C11.0941 20.5301 9.37134 21.0121 7.65942 20.8089C9.1393 21.7611 10.8623 22.2667 12.622 22.2649" fill="#CF9400"/>
</svg>
