<svg width="25" height="24" viewBox="0 0 25 24" fill="none" xmlns="http://www.w3.org/2000/svg">
<path d="M18.9206 8.2199C18.3096 6.8159 17.2551 5.65097 15.9187 4.90362C14.5823 4.15627 13.0377 3.86773 11.5216 4.0822C10.0055 4.29668 8.60155 5.00235 7.52488 6.09107C6.44821 7.17979 5.75821 8.59151 5.56062 10.1099C4.60721 10.3382 3.77084 10.9087 3.21036 11.7131C2.64988 12.5174 2.40431 13.4996 2.52029 14.4731C2.63627 15.4466 3.10572 16.3436 3.83949 16.9938C4.57326 17.6439 5.52025 18.002 6.50062 17.9999C6.76584 17.9999 7.02019 17.8945 7.20773 17.707C7.39527 17.5195 7.50062 17.2651 7.50062 16.9999C7.50062 16.7347 7.39527 16.4803 7.20773 16.2928C7.02019 16.1053 6.76584 15.9999 6.50062 15.9999C5.97019 15.9999 5.46148 15.7892 5.08641 15.4141C4.71134 15.039 4.50062 14.5303 4.50062 13.9999C4.50062 13.4695 4.71134 12.9608 5.08641 12.5857C5.46148 12.2106 5.97019 11.9999 6.50062 11.9999C6.76584 11.9999 7.02019 11.8945 7.20773 11.707C7.39527 11.5195 7.50062 11.2651 7.50062 10.9999C7.50318 9.81717 7.92491 8.67365 8.69089 7.77248C9.45688 6.87131 10.5175 6.27085 11.6844 6.07777C12.8512 5.88469 14.0488 6.1115 15.0642 6.7179C16.0796 7.32431 16.8472 8.27104 17.2306 9.3899C17.2878 9.56174 17.3905 9.71483 17.5279 9.83283C17.6653 9.95083 17.8321 10.0293 18.0106 10.0599C18.6767 10.1858 19.2805 10.5335 19.7236 11.0464C20.1668 11.5594 20.4232 12.2073 20.451 12.8845C20.4789 13.5618 20.2765 14.2286 19.8769 14.7761C19.4774 15.3237 18.9041 15.7198 18.2506 15.8999C17.9934 15.9662 17.773 16.132 17.638 16.3608C17.5029 16.5896 17.4643 16.8626 17.5306 17.1199C17.5969 17.3772 17.7627 17.5975 17.9915 17.7326C18.2203 17.8676 18.4934 17.9062 18.7506 17.8399C19.803 17.5618 20.7359 16.9479 21.4076 16.0914C22.0794 15.2348 22.4532 14.1825 22.4725 13.0942C22.4917 12.0058 22.1552 10.9409 21.5142 10.0612C20.8731 9.18149 19.9625 8.53499 18.9206 8.2199ZM13.2106 10.2899C13.1155 10.1989 13.0034 10.1275 12.8806 10.0799C12.6372 9.97988 12.3641 9.97988 12.1206 10.0799C11.9979 10.1275 11.8857 10.1989 11.7906 10.2899L8.79062 13.2899C8.60232 13.4782 8.49653 13.7336 8.49653 13.9999C8.49653 14.2662 8.60232 14.5216 8.79062 14.7099C8.97893 14.8982 9.23432 15.004 9.50062 15.004C9.76692 15.004 10.0223 14.8982 10.2106 14.7099L11.5006 13.4099V18.9999C11.5006 19.2651 11.606 19.5195 11.7935 19.707C11.9811 19.8945 12.2354 19.9999 12.5006 19.9999C12.7658 19.9999 13.0202 19.8945 13.2077 19.707C13.3953 19.5195 13.5006 19.2651 13.5006 18.9999V13.4099L14.7906 14.7099C14.8836 14.8036 14.9942 14.878 15.116 14.9288C15.2379 14.9796 15.3686 15.0057 15.5006 15.0057C15.6326 15.0057 15.7633 14.9796 15.8852 14.9288C16.0071 14.878 16.1177 14.8036 16.2106 14.7099C16.3044 14.6169 16.3787 14.5063 16.4295 14.3845C16.4803 14.2626 16.5064 14.1319 16.5064 13.9999C16.5064 13.8679 16.4803 13.7372 16.4295 13.6153C16.3787 13.4935 16.3044 13.3829 16.2106 13.2899L13.2106 10.2899Z" fill="white"/>
</svg>
