<svg width="30" height="30" viewBox="0 0 30 30" fill="none" xmlns="http://www.w3.org/2000/svg">
<path d="M15 0C12.0332 6.06642e-08 9.13294 0.879814 6.66614 2.52817C4.19933 4.17652 2.27675 6.51938 1.14153 9.26045C0.00630184 12.0015 -0.290576 15.0177 0.288448 17.9275C0.867472 20.8373 2.29639 23.51 4.39448 25.6077C6.49257 27.7053 9.1656 29.1337 12.0755 29.7121C14.9854 30.2906 18.0015 29.9931 20.7424 28.8573C23.4832 27.7215 25.8257 25.7985 27.4735 23.3313C29.1214 20.8642 30.0006 17.9638 30 14.997C29.9992 11.0192 28.4185 7.20472 25.6055 4.39233C22.7926 1.57994 18.9777 -8.13339e-08 15 0ZM15 28.635C12.2996 28.638 9.65901 27.84 7.41226 26.3419C5.16551 24.8438 3.41357 22.713 2.3781 20.219C1.34263 17.7251 1.07014 14.98 1.59512 12.3311C2.1201 9.68226 3.41896 7.24862 5.32737 5.3381C7.23577 3.42757 9.66796 2.12601 12.3162 1.59809C14.9645 1.07017 17.7099 1.33959 20.205 2.37229C22.7001 3.40499 24.8329 5.15456 26.3335 7.39964C27.834 9.64473 28.635 12.2844 28.635 14.9848C28.635 18.6024 27.1989 22.0721 24.6423 24.6316C22.0857 27.1911 18.6176 28.631 15 28.635Z" fill="#CF9400"/>
<path d="M23.2447 11.633C23.2447 11.633 23.0809 10.4742 22.5774 9.9646C22.1299 9.51588 21.5245 9.26003 20.8908 9.25176C18.5369 9.07886 15.0031 9.07886 15.0031 9.07886C15.0031 9.07886 11.4692 9.07886 9.11532 9.25176C8.48114 9.25775 7.87499 9.51395 7.42876 9.9646C6.92522 10.4742 6.76142 11.633 6.76142 11.633C6.65546 12.5392 6.59876 13.4506 6.59155 14.363V15.64C6.59876 16.5524 6.65546 17.4638 6.76142 18.3701C6.76142 18.3701 6.92522 19.5288 7.42876 20.0384C8.0688 20.7088 8.90905 20.6876 9.28518 20.7573C10.632 20.8878 15.0061 20.9272 15.0061 20.9272C15.0061 20.9272 18.543 20.9272 20.8969 20.7513C21.5306 20.743 22.1359 20.4871 22.5835 20.0384C23.087 19.5288 23.2508 18.3701 23.2508 18.3701C23.3568 17.4638 23.4135 16.5524 23.4207 15.64V14.363C23.4114 13.4505 23.3527 12.5391 23.2447 11.633ZM13.2619 17.187V12.452L17.812 14.8241L13.2619 17.187Z" fill="#CF9400"/>
</svg>
